<svg xmlns="http://www.w3.org/2000/svg" viewBox="0 0 64 64" role="img" aria-label="Bulldog Marching Band Centennial">
  <g fill="#C9A227">
    <polygon points="32,1.5 29.3,20 34.7,20"/>
    <polygon points="32,1.5 29.3,20 34.7,20" transform="rotate(30 32 32)"/>
    <polygon points="32,1.5 29.3,20 34.7,20" transform="rotate(60 32 32)"/>
    <polygon points="32,1.5 29.3,20 34.7,20" transform="rotate(90 32 32)"/>
    <polygon points="32,1.5 29.3,20 34.7,20" transform="rotate(120 32 32)"/>
    <polygon points="32,1.5 29.3,20 34.7,20" transform="rotate(150 32 32)"/>
    <polygon points="32,1.5 29.3,20 34.7,20" transform="rotate(180 32 32)"/>
    <polygon points="32,1.5 29.3,20 34.7,20" transform="rotate(210 32 32)"/>
    <polygon points="32,1.5 29.3,20 34.7,20" transform="rotate(240 32 32)"/>
    <polygon points="32,1.5 29.3,20 34.7,20" transform="rotate(270 32 32)"/>
    <polygon points="32,1.5 29.3,20 34.7,20" transform="rotate(300 32 32)"/>
    <polygon points="32,1.5 29.3,20 34.7,20" transform="rotate(330 32 32)"/>
    <circle cx="32" cy="32" r="18"/>
  </g>
  <circle cx="32" cy="32" r="18" fill="none" stroke="#003594" stroke-width="1.6"/>
  <g fill="#003594">
    <rect x="32.4" y="20" width="3" height="20" rx="0.7"/>
    <path d="M35.4 20 C 44 22.5 45 31 38.6 36.5 C 42.5 30.5 41.5 25 35.4 25.8 Z"/>
    <ellipse cx="29.2" cy="40.5" rx="7" ry="5.2" transform="rotate(-21 29.2 40.5)"/>
  </g>
</svg>